<svg xmlns="http://www.w3.org/2000/svg" viewBox="0 0 64 64">
  <defs>
    <style>
      @media (prefers-color-scheme: dark) {
        .bg { fill: #1e293b; }
        .frame { stroke: #60a5fa; }
        .col { fill: #f87171; }
        .beam { stroke: #fbbf24; }
        .grid { stroke: #34d399; }
        .txt { fill: #e2e8f0; }
      }
      @media (prefers-color-scheme: light) {
        .bg { fill: #f0f4f8; }
        .frame { stroke: #3b82f6; }
        .col { fill: #e74c3c; }
        .beam { stroke: #f39c12; }
        .grid { stroke: #27ae60; }
        .txt { fill: #1e293b; }
      }
    </style>
  </defs>
  <rect class="bg" width="64" height="64" rx="8"/>
  <rect class="frame" x="4" y="4" width="56" height="56" rx="4" fill="none" stroke-width="2.5"/>
  <line class="grid" x1="12" y1="8" x2="12" y2="56" stroke-width="0.8" stroke-dasharray="2 2" opacity="0.5"/>
  <line class="grid" x1="32" y1="8" x2="32" y2="56" stroke-width="0.8" stroke-dasharray="2 2" opacity="0.5"/>
  <line class="grid" x1="52" y1="8" x2="52" y2="56" stroke-width="0.8" stroke-dasharray="2 2" opacity="0.5"/>
  <line class="grid" x1="8" y1="16" x2="56" y2="16" stroke-width="0.8" stroke-dasharray="2 2" opacity="0.5"/>
  <line class="grid" x1="8" y1="44" x2="56" y2="44" stroke-width="0.8" stroke-dasharray="2 2" opacity="0.5"/>
  <rect class="col" x="9" y="13" width="6" height="6" rx="1"/>
  <rect class="col" x="29" y="13" width="6" height="6" rx="1"/>
  <rect class="col" x="49" y="13" width="6" height="6" rx="1"/>
  <rect class="col" x="9" y="41" width="6" height="6" rx="1"/>
  <rect class="col" x="29" y="41" width="6" height="6" rx="1"/>
  <rect class="col" x="49" y="41" width="6" height="6" rx="1"/>
  <line class="beam" x1="15" y1="16" x2="29" y2="16" stroke-width="2.5"/>
  <line class="beam" x1="35" y1="16" x2="49" y2="16" stroke-width="2.5"/>
  <line class="beam" x1="15" y1="44" x2="29" y2="44" stroke-width="2.5"/>
  <line class="beam" x1="35" y1="44" x2="49" y2="44" stroke-width="2.5"/>
  <line class="beam" x1="12" y1="19" x2="12" y2="41" stroke-width="2"/>
  <line class="beam" x1="52" y1="19" x2="52" y2="41" stroke-width="2"/>
  <text class="txt" x="32" y="34" text-anchor="middle" font-family="system-ui,sans-serif" font-size="11" font-weight="700" letter-spacing="1">CAD</text>
</svg>
